<svg width="2213" height="1362" viewBox="0 0 2213 1362" fill="none" xmlns="http://www.w3.org/2000/svg">
<path d="M0 0H178V1184H0V0Z" fill="#F7DF1E"/>
<rect x="1516.24" y="1058.5" width="178" height="519.244" transform="rotate(-89.9365 1516.24 1058.5)" fill="#F7DF1E"/>
<path d="M839 177V0L2036 0V177L839 177Z" fill="#F7DF1E"/>
<path d="M2213 1184V1362L0 1362V1184L2213 1184Z" fill="#F7DF1E"/>
<path fill-rule="evenodd" clip-rule="evenodd" d="M137.043 554.584L544.624 177H766L325.703 617.5L766 1058L544.624 1058L137.043 680.416C120.368 663.728 111 641.097 111 617.5C111 593.903 120.368 571.272 137.043 554.584Z" fill="#F7DF1E"/>
<path fill-rule="evenodd" clip-rule="evenodd" d="M1466.96 680.416L1059.38 1058H838L1278.3 617.5L838 177L1059.38 177L1466.96 554.584C1483.63 571.272 1493 593.903 1493 617.5C1493 641.097 1483.63 663.728 1466.96 680.416Z" fill="#F7DF1E"/>
<path d="M2035 0H2213V1184H2035V0Z" fill="#F7DF1E"/>
</svg>
